<svg aria-hidden="true" style="position: absolute; width: 0; height: 0; overflow: hidden;" version="1.1" xmlns="http://www.w3.org/2000/svg" xmlns:xlink="http://www.w3.org/1999/xlink">
<defs>
<!-- Стрілка в кнопці (>)-->
<symbol id="icon-arrow-button" viewBox="0 0 19 32">
<path fill="none" opacity="0.4" stroke="#d41443" style="stroke: var(--color1, #d41443)" stroke-linejoin="round" stroke-linecap="round" stroke-miterlimit="4" stroke-width="6.4" d="M3.217 3.2l12.8 12.8-12.8 12.8"></path>
</symbol>
<!-- (") -->
<symbol id="icon-block-5-quotes" viewBox="0 0 43 32">
<path fill="#e1e1e1" style="fill: var(--color2, #e1e1e1)" d="M32.019-0.002c1.928 0 3.75 0.52 5.465 1.561s3.108 2.537 4.179 4.489c1.029 1.951 1.543 4.25 1.543 6.895s-0.643 5.225-1.928 7.741c-0.429 0.911-1.2 2.081-2.316 3.512-1.157 1.431-2.228 2.667-3.214 3.708l-4.051 4.098-2.893-4.813c2.063-1.302 3.824-2.855 5.307-4.647l0.030-0.037c1.543-1.821 2.314-3.491 2.314-5.009 0-0.781-0.171-1.41-0.514-1.887-1.5 1.084-3.172 1.627-5.015 1.627-1.328 0-2.593-0.412-3.793-1.236-1.238-0.782-2.238-1.834-2.936-3.079l-0.022-0.043c-0.771-1.258-1.157-2.559-1.157-3.903 0-1.519 0.45-2.971 1.35-4.359 0.866-1.389 2.011-2.526 3.364-3.357l0.044-0.025c1.371-0.824 2.784-1.236 4.242-1.236zM8.937-0.002c1.928 0 3.75 0.52 5.465 1.561s3.108 2.536 4.179 4.489c1.029 1.951 1.543 4.25 1.543 6.895 0 1.864-0.236 3.534-0.707 5.009-0.472 1.518-1.286 3.1-2.444 4.749-1.115 1.561-2.164 2.862-3.15 3.903-0.986 1.084-2.7 2.884-5.144 5.399l-2.893-4.813c2.063-1.302 3.824-2.855 5.307-4.647l0.030-0.037c1.543-1.821 2.315-3.491 2.315-5.009 0-0.781-0.172-1.41-0.514-1.887-1.5 1.084-3.172 1.627-5.015 1.627-1.328 0-2.593-0.412-3.793-1.236-1.238-0.782-2.237-1.834-2.936-3.079l-0.022-0.043c-0.771-1.258-1.157-2.559-1.157-3.903 0-1.519 0.429-2.971 1.286-4.359 0.866-1.389 2.011-2.526 3.364-3.357l0.045-0.025c1.371-0.824 2.784-1.236 4.243-1.236z"></path>
</symbol>
<!-- Крапки блок 5, червоні -->
<symbol id="icon-block-5-dots" viewBox="0 0 256 32">
<path fill="#c7133e" style="fill: var(--color3, #c7133e)" d="M144.016 16.028c0 8.838-7.164 16.002-16.002 16.002s-16.002-7.164-16.002-16.002c0-8.838 7.164-16.002 16.002-16.002s16.002 7.164 16.002 16.002z"></path>
<path fill="#c7133e" style="fill: var(--color3, #c7133e)" d="M32.003 16.028c0 8.838-7.164 16.002-16.002 16.002s-16.002-7.164-16.002-16.002c0-8.838 7.164-16.002 16.002-16.002s16.002 7.164 16.002 16.002z"></path>
<path fill="#c7133e" style="fill: var(--color3, #c7133e)" d="M256.028 16.028c0 8.838-7.164 16.002-16.002 16.002s-16.002-7.164-16.002-16.002c0-8.838 7.164-16.002 16.002-16.002s16.002 7.164 16.002 16.002z"></path>
</symbol>
<!--Хатинка блок 5-->
<symbol id="icon-block-5-home" viewBox="0 0 32 32">
<path fill="#d31342" style="fill: var(--color4, #d31342)" d="M31.609 16.77c0.246-0.246 0.399-0.586 0.399-0.962 0-0.435-0.204-0.822-0.521-1.071l-0.003-0.002-14.305-11.678c-0.314-0.243-0.713-0.39-1.146-0.39-0.448 0-0.86 0.157-1.183 0.419l0.004-0.003-14.354 12.27c-0.306 0.249-0.5 0.627-0.5 1.049 0 0.39 0.166 0.742 0.43 0.988l0.001 0.001 0.36 0.347c0.595 0.581 1.56 0.651 2.153 0.155l1.072-0.896v13.121c0 0.803 0.702 1.456 1.563 1.456h5.594c0.864 0 1.563-0.654 1.563-1.456v-9.179h7.135v9.176c-0 0.011-0 0.023-0 0.035 0 0.785 0.637 1.422 1.422 1.422 0.016 0 0.032-0 0.048-0.001l-0.002 0h5.93c0.862 0 1.56-0.651 1.56-1.456v-12.932s0.299 0.24 0.664 0.541c0.363 0.299 1.131 0.059 1.71-0.536l0.408-0.419z"></path>
</symbol>
<!-- Бургер -->
<symbol id="icon-burger" viewBox="0 0 46 32">
<path d="M0 2.286v1.143h45.714v-2.286h-45.714v1.143zM0 16v1.143h45.714v-2.286h-45.714v1.143zM0 29.714v1.143h45.714v-2.286h-45.714v1.143z"></path>
</symbol>
<!-- Хрестик close -->
<symbol id="icon-close" viewBox="0 0 20 20">
<path d="M10 8.586l-7.071-7.071-1.414 1.414 7.071 7.071-7.071 7.071 1.414 1.414 7.071-7.071 7.071 7.071 1.414-1.414-7.071-7.071 7.071-7.071-1.414-1.414-7.071 7.071z"></path>
</symbol>
<!-- Крапки блок 2 (білі) -->
<symbol id="icon-dots-product" viewBox="0 0 139 32">
<path fill="#fff" style="fill: var(--color5, #fff)" d="M85.368 16.028c0 8.84-7.166 16.006-16.006 16.006s-16.006-7.166-16.006-16.006c0-8.84 7.166-16.006 16.006-16.006s16.006 7.166 16.006 16.006z"></path>
<path fill="#fff" style="fill: var(--color5, #fff)" d="M32.013 16.028c0 8.84-7.166 16.006-16.006 16.006s-16.006-7.166-16.006-16.006c0-8.84 7.166-16.006 16.006-16.006s16.006 7.166 16.006 16.006z"></path>
<path fill="#fff" style="fill: var(--color5, #fff)" d="M138.722 16.028c0 8.84-7.166 16.006-16.006 16.006s-16.006-7.166-16.006-16.006c0-8.84 7.166-16.006 16.006-16.006s16.006 7.166 16.006 16.006z"></path>
</symbol>
<!-- Фейсбук -->
<symbol id="icon-fb" viewBox="0 0 16 32">
<path fill="#fff" style="fill: var(--color5, #fff)" d="M14.151 15.973h-4.034v14.868h-6.113v-14.868h-2.907v-5.223h2.907v-3.382c0-2.418 1.142-6.205 6.168-6.205l4.527 0.019v5.073h-3.285c-0.538 0-1.298 0.272-1.298 1.426v3.074h4.568l-0.534 5.22z"></path>
</symbol>
<!-- Instagram -->
<symbol id="icon-instagram" viewBox="0 0 32 32">
<path d="M31.968 9.408c-.074-1.701-.349-2.869-.742-3.882a7.839 7.839 0 0 0-1.85-2.837l-.001-.001A7.906 7.906 0 0 0 26.597.861l-.054-.018C25.524.449 24.362.176 22.661.101 20.949.019 20.405 0 16.059 0c-4.344 0-4.888.019-6.595.094-1.699.074-2.869.349-3.88.742a7.847 7.847 0 0 0-2.839 1.85l-.001.001A7.9 7.9 0 0 0 .919 5.465l-.018.054C.506 6.538.232 7.7.157 9.401c-.082 1.712-.101 2.256-.101 6.602 0 4.344.019 4.888.094 6.595.075 1.701.35 2.869.744 3.882a7.915 7.915 0 0 0 1.849 2.837l.001.001c.8.813 1.77 1.443 2.832 1.843 1.019.395 2.182.67 3.882.744 1.707.075 2.251.094 6.595.094 4.346 0 4.89-.019 6.595-.094 1.701-.074 2.869-.349 3.882-.742a8.237 8.237 0 0 0 4.664-4.628l.019-.055c.394-1.019.669-2.182.744-3.882.075-1.707.093-2.251.093-6.595s-.006-4.888-.08-6.595zm-2.88 13.066c-.07 1.563-.333 2.406-.55 2.97a5.341 5.341 0 0 1-3.004 3.024l-.036.012c-.56.219-1.411.482-2.968.55-1.688.075-2.194.094-6.464.094-4.269 0-4.782-.019-6.464-.094-1.563-.069-2.406-.331-2.97-.55a4.953 4.953 0 0 1-1.836-1.192l-.001-.001a4.978 4.978 0 0 1-1.184-1.803L3.6 25.45c-.218-.563-.48-1.413-.549-2.97-.075-1.688-.094-2.195-.094-6.464 0-4.27.019-4.784.094-6.464.069-1.563.331-2.406.549-2.97a4.897 4.897 0 0 1 1.198-1.837l.002-.002a4.972 4.972 0 0 1 1.806-1.182l.034-.011c.56-.219 1.411-.48 2.968-.55 1.688-.074 2.195-.093 6.464-.093 4.275 0 4.782.019 6.464.093 1.563.069 2.406.331 2.97.55a4.91 4.91 0 0 1 1.837 1.194c.531.52.938 1.144 1.195 1.84.218.56.48 1.411.549 2.968.075 1.688.094 2.194.094 6.464 0 4.269-.019 4.768-.094 6.458z"/><path d="M16.059 7.782a8.223 8.223 0 0 0-8.219 8.221 8.223 8.223 0 0 0 16.442.008v-.009a8.223 8.223 0 0 0-8.221-8.221zm0 13.552a5.333 5.333 0 0 1 .001-10.666h.001a5.334 5.334 0 1 1 0 10.668zM26.525 7.458a1.92 1.92 0 0 1-3.84 0 1.92 1.92 0 0 1 3.84 0z"/>
</symbol>
<!-- Телеграм -->
<symbol id="icon-telegram" viewBox="0 0 44 32">
<path fill="#fff" style="fill: var(--color5, #fff)" d="M17.345 21.059l-0.674 8.861c0.966 0 1.384-0.388 1.886-0.852l4.527-4.041 9.381 6.415c1.72 0.894 2.934 0.422 3.401-1.478l6.157-26.936c0.548-2.374-0.92-3.303-2.594-2.72l-36.2 12.936c-2.47 0.896-2.434 2.18-0.42 2.766l9.253 2.684 21.497-12.554c1.012-0.626 1.932-0.28 1.176 0.346l-17.393 14.572z"></path>
</symbol>
<!-- Бургер альтернатива (товстіший) -->
<symbol id="icon-menu-24px" viewBox="0 0 48 32">
<path d="M0 5.333v-5.333h48v5.333h-48zM0 18.667h48v-5.333h-48v5.333zM0 32h48v-5.333h-48v5.333z"></path>
</symbol>
<!-- Стрілка Hero & block 2 -->
<symbol id="icon-rightarrow" viewBox="0 0 32 32">
<path d="M16.222 3.867c-1.008 1.008-1.008 2.637 0 3.645l5.911 5.911h-19.555c-1.423 0-2.578 1.155-2.578 2.578s1.155 2.578 2.578 2.578h19.555l-5.911 5.911c-1.008 1.008-1.008 2.637 0 3.645 0.503 0.503 1.163 0.755 1.822 0.755s1.32-0.253 1.822-0.755l12.133-12.133-12.133-12.133c-1.008-1.008-2.637-1.008-3.645 0z"></path>
</symbol>
<!-- Стрілка для повернення наверх сторінкі -->
<symbol id="icon-top-pointer" viewBox="0 0 24 24">
<path d="M12 20.016q-1.641 0-3.094-0.633t-2.555-1.734-1.734-2.555-0.633-3.094 0.633-3.094 1.734-2.555 2.555-1.734 3.094-0.633 3.094 0.633 2.555 1.734 1.734 2.555 0.633 3.094-0.633 3.094-1.734 2.555-2.555 1.734-3.094 0.633zM12 21.984q2.063 0 3.867-0.773t3.188-2.156 2.156-3.188 0.773-3.867-0.773-3.867-2.156-3.188-3.188-2.156-3.867-0.773-3.867 0.773-3.188 2.156-2.156 3.188-0.773 3.867 0.773 3.867 2.156 3.188 3.188 2.156 3.867 0.773v0zM11.016 12v3.984h1.969v-3.984h3l-3.984-3.984-3.984 3.984h3z"></path>
</symbol>
<symbol id="icon-checked" viewBox="0 0 34 32"><path d="M4.267 0h25.6a4.267 4.267 0 0 1 4.267 4.267v23.467a4.267 4.267 0 0 1-4.267 4.267h-25.6A4.267 4.267 0 0 1 0 27.734V4.267A4.267 4.267 0 0 1 4.267 0z"/><path fill="#fff" style="fill:var(--color2, #fff)" d="m8.442 16.538-.147-.141-.147.139-2.057 1.95.162.156 7.605 7.253.147-.141 16.171-15.426-.162-.154-2.029-1.935-.147.141-13.98 13.325-5.417-5.167z"/></symbol><symbol id="icon-checkbox" viewBox="0 0 34 32"><path d="M30.34 3.556v24.887H3.793V3.556H30.34zm0-3.556H3.793C1.707 0 0 1.6 0 3.556v24.887c0 1.956 1.707 3.556 3.793 3.556H30.34c2.086 0 3.793-1.6 3.793-3.556V3.556C34.133 1.6 32.426 0 30.34 0z"/>
</symbol>
<symbol id="icon-icecream-logo" viewBox="0 0 32 32">
<path d="M0 16v16h32v-32h-32v16zM18.667 1.6c3.85 0.9 7.117 4 8.067 7.683 0.15 0.567 0.267 1.55 0.267 2.183v1.167l0.567 0.2c0.767 0.25 1.717 1.317 1.867 2.083 0.267 1.45-0.35 2.717-1.617 3.283l-0.817 0.383v2.983c0 3.65-0.1 4.050-1.333 5.283-0.733 0.733-1.1 0.983-1.8 1.15l-0.867 0.233v1.017c0 1.1-0.183 1.417-0.783 1.417-0.5 0-0.717-0.467-0.717-1.483v-0.85h-10.5v1c0 0.917-0.033 1.033-0.417 1.2-0.667 0.3-1.083-0.2-1.083-1.3v-0.883l-0.617-0.117c-0.933-0.167-2.117-0.817-2.633-1.433-0.983-1.15-1.083-1.6-1.083-4.983v-3.117l-0.917-0.45c-2.45-1.183-2.333-4.333 0.217-5.433l0.7-0.3v-1.15c0-4.417 3.367-8.467 8.067-9.7 1.467-0.383 3.95-0.417 5.433-0.067z"></path>
<path d="M13.667 3.1c-1.217 0.317-3.167 1.283-3.65 1.8l-0.4 0.417 0.4 0.35c1.333 1.133 3.483 1.983 5.4 2.117 2.283 0.15 4.333-0.433 6.117-1.733l1.033-0.767-0.567-0.483c-0.767-0.65-2.35-1.4-3.583-1.717s-3.533-0.3-4.75 0.017z"></path>
<path d="M8.167 6.833c-0.883 1.233-1.5 3.283-1.5 4.917v0.917h18.883l-0.1-1.383c-0.117-1.567-0.567-2.983-1.3-4.133l-0.5-0.8-1 0.733c-2.117 1.55-4.017 2.167-6.733 2.15-2.583-0.017-4.517-0.683-6.65-2.317l-0.75-0.567-0.35 0.483z"></path>
<path d="M4.733 14.367c-0.733 0.35-0.95 1.5-0.417 2.15l0.317 0.4 13.95 0.167 0.050 2.083c0.033 1.85 0.083 2.117 0.4 2.45 0.5 0.533 1.6 0.533 2.1 0 0.333-0.35 0.367-0.567 0.367-2.4 0-1.683 0.050-2.033 0.267-2.117 0.15-0.050 1.45-0.1 2.9-0.1h2.65l0.333-0.433c0.483-0.617 0.45-1.483-0.067-1.983l-0.4-0.417-11.050 0.017c-7.25 0-11.167 0.067-11.4 0.183z"></path>
<path d="M6.667 21.6c0 3.5 0.117 3.933 1.283 4.733l0.6 0.417 5.35 0.050c2.95 0.033 6.35 0.017 7.567-0.050 2.45-0.133 2.917-0.317 3.65-1.4 0.367-0.533 0.383-0.717 0.383-3.717v-3.15l-2.417 0.1-0.083 1.5c-0.050 1.050-0.183 1.65-0.383 2-0.783 1.283-2.483 1.75-3.85 1.083-1.2-0.583-1.5-1.133-1.6-3l-0.083-1.583-5.2-0.050-5.217-0.033v3.1z"></path>
</symbol>
</defs>
</svg>
