<?xml version="1.0" standalone="no"?>
<!DOCTYPE svg PUBLIC "-//W3C//DTD SVG 20010904//EN"
 "http://www.w3.org/TR/2001/REC-SVG-20010904/DTD/svg10.dtd">
<svg version="1.0" xmlns="http://www.w3.org/2000/svg"
 width="192.000000pt" height="192.000000pt" viewBox="0 0 192.000000 192.000000"
 preserveAspectRatio="xMidYMid meet">

<g transform="translate(0.000000,192.000000) scale(0.100000,-0.100000)"
fill="#d41443" stroke="none">
<path d="M0 960 l0 -960 960 0 960 0 0 960 0 960 -960 0 -960 0 0 -960z m1120
864 c231 -54 427 -240 484 -461 9 -34 16 -93 16 -131 l0 -70 34 -12 c46 -15
103 -79 112 -125 16 -87 -21 -163 -97 -197 l-49 -23 0 -179 c0 -219 -6 -243
-80 -317 -44 -44 -66 -59 -108 -69 l-52 -14 0 -61 c0 -66 -11 -85 -47 -85 -30
0 -43 28 -43 89 l0 51 -315 0 -315 0 0 -60 c0 -55 -2 -62 -25 -72 -40 -18 -65
12 -65 78 l0 53 -37 7 c-56 10 -127 49 -158 86 -59 69 -65 96 -65 299 l0 187
-55 27 c-147 71 -140 260 13 326 l42 18 0 69 c0 265 202 508 484 582 88 23
237 25 326 4z"/>
<path d="M820 1734 c-73 -19 -190 -77 -219 -108 l-24 -25 24 -21 c80 -68 209
-119 324 -127 137 -9 260 26 367 104 l62 46 -34 29 c-46 39 -141 84 -215 103
-74 19 -212 18 -285 -1z"/>
<path d="M490 1510 c-53 -74 -90 -197 -90 -295 l0 -55 566 0 567 0 -6 83 c-7
94 -34 179 -78 248 l-30 48 -60 -44 c-127 -93 -241 -130 -404 -129 -155 1
-271 41 -399 139 l-45 34 -21 -29z"/>
<path d="M284 1058 c-44 -21 -57 -90 -25 -129 l19 -24 419 -5 418 -5 3 -125
c2 -111 5 -127 24 -147 30 -32 96 -32 126 0 20 21 22 34 22 144 0 101 3 122
16 127 9 3 87 6 174 6 l159 0 20 26 c29 37 27 89 -4 119 l-24 25 -663 -1
c-435 0 -670 -4 -684 -11z"/>
<path d="M400 624 c0 -210 7 -236 77 -284 l36 -25 321 -3 c177 -2 381 -1 454
3 147 8 175 19 219 84 22 32 23 43 23 223 l0 189 -72 -3 -73 -3 -5 -90 c-3
-63 -11 -99 -23 -120 -47 -77 -149 -105 -231 -65 -72 35 -90 68 -96 180 l-5
95 -312 3 -313 2 0 -186z"/>
</g>
</svg>
