<?xml version="1.0" standalone="no"?>
<!DOCTYPE svg PUBLIC "-//W3C//DTD SVG 20010904//EN"
 "http://www.w3.org/TR/2001/REC-SVG-20010904/DTD/svg10.dtd">
<svg version="1.0" xmlns="http://www.w3.org/2000/svg"
 width="806.000000pt" height="806.000000pt" viewBox="0 0 806.000000 806.000000"
 preserveAspectRatio="xMidYMid meet">
<metadata>
Created by potrace 1.14, written by Peter Selinger 2001-2017
</metadata>
<g transform="translate(0.000000,806.000000) scale(0.100000,-0.100000)"
fill="#000000" stroke="none">
<path d="M3839 8056 c-2 -2 -41 -7 -86 -10 -46 -4 -93 -9 -105 -12 -13 -2 -43
-7 -68 -10 -77 -9 -101 -14 -214 -40 -160 -37 -199 -48 -331 -93 -66 -23 -124
-43 -130 -45 -71 -22 -295 -130 -415 -200 -82 -47 -242 -150 -267 -171 -7 -5
-19 -16 -27 -22 -8 -7 -18 -13 -20 -13 -3 0 -15 -8 -27 -17 -11 -10 -30 -26
-42 -36 -181 -147 -372 -345 -520 -537 -71 -92 -186 -280 -248 -405 -24 -49
-48 -93 -54 -97 -5 -4 -6 -8 -1 -8 5 0 3 -6 -3 -13 -6 -8 -8 -17 -4 -20 3 -4
1 -7 -5 -7 -7 0 -12 -8 -12 -18 0 -10 -4 -22 -8 -27 -14 -17 -74 -182 -103
-285 -18 -64 -20 -73 -21 -87 -1 -7 -5 -13 -10 -13 -5 0 -7 -3 -4 -8 2 -4 -2
-34 -10 -67 -7 -33 -16 -76 -19 -95 -3 -20 -8 -47 -10 -60 -3 -14 -7 -43 -10
-65 -3 -22 -8 -57 -10 -77 -3 -20 -8 -83 -10 -140 -2 -57 -5 -105 -5 -108 -4
-19 -1 -131 4 -139 4 -5 2 -12 -3 -16 -6 -3 -7 -15 -2 -28 4 -12 5 -33 1 -47
-4 -14 -3 -37 1 -52 8 -30 7 -31 -66 -42 -151 -24 -301 -103 -420 -223 -116
-116 -192 -259 -222 -418 -7 -38 -9 -221 -3 -275 5 -45 52 -184 78 -235 81
-154 211 -281 362 -352 94 -45 108 -49 189 -64 48 -9 76 -19 82 -31 5 -10 5
-19 0 -22 -5 -3 -5 -21 -1 -41 4 -19 5 -35 1 -35 -8 0 -5 -76 4 -89 3 -5 1
-12 -4 -15 -4 -3 -6 -20 -4 -38 5 -35 6 -86 3 -103 -4 -23 -1 -116 5 -125 3
-6 2 -10 -3 -10 -4 0 -6 -23 -2 -50 4 -28 4 -52 2 -55 -7 -7 -5 -102 2 -113 3
-6 2 -13 -3 -17 -6 -3 -7 -16 -3 -28 6 -20 7 -54 2 -82 -4 -25 -1 -115 5 -125
3 -5 3 -10 -2 -10 -9 0 -9 -111 0 -135 4 -8 2 -17 -3 -20 -5 -3 -6 -15 -1 -27
4 -12 5 -38 1 -59 -4 -20 -3 -44 2 -52 5 -9 4 -18 -1 -22 -6 -3 -7 -15 -2 -28
4 -12 5 -35 1 -52 -3 -16 -3 -42 1 -57 4 -16 4 -28 0 -28 -4 0 -5 -23 -1 -50
4 -28 3 -53 -2 -56 -4 -3 -4 -13 1 -22 4 -9 12 -37 16 -62 4 -25 9 -58 12 -75
16 -95 94 -290 152 -380 58 -90 142 -194 210 -257 39 -37 71 -64 71 -62 0 3 8
-2 17 -12 28 -28 144 -99 224 -137 105 -50 234 -88 344 -103 11 -1 20 -3 20
-4 0 -1 33 -3 74 -6 41 -2 76 -6 77 -7 2 -2 4 -113 5 -247 1 -270 3 -276 65
-335 88 -83 229 -66 300 37 l29 41 3 253 3 253 1444 1 c1346 0 1445 -1 1454
-17 5 -10 5 -26 1 -39 -5 -12 -7 -24 -5 -26 5 -4 6 -44 5 -193 0 -241 7 -277
64 -330 82 -76 203 -71 279 10 43 45 54 81 55 173 0 46 3 86 6 89 2 3 1 16 -4
29 -5 13 -6 24 -1 24 4 0 5 19 2 42 -4 24 -4 57 -1 73 3 17 3 45 -1 63 -4 17
-4 34 0 37 4 2 6 24 4 49 -3 46 -3 46 29 48 39 1 42 2 93 13 22 4 46 9 52 11
43 8 160 52 229 84 238 114 447 320 563 553 37 77 77 177 86 217 1 8 8 34 14
56 6 23 14 57 18 75 4 19 8 397 10 842 2 516 7 807 13 807 6 0 11 0 13 -1 1 0
14 4 30 10 15 6 39 13 54 15 37 7 164 69 226 110 110 73 219 202 271 319 9 20
23 52 31 70 8 19 17 49 20 68 2 19 9 54 14 79 9 43 8 208 -2 260 -18 100 -61
206 -116 290 -53 82 -70 100 -181 200 -37 33 -205 120 -260 135 -3 0 -29 7
-57 14 l-53 13 -1 196 c0 109 -2 215 -4 237 -7 97 -15 192 -20 218 -3 15 -7
39 -10 55 -3 15 -7 46 -10 70 -3 24 -10 54 -15 67 -5 14 -8 25 -5 25 2 0 -1
15 -6 33 -6 17 -12 41 -15 52 -3 11 -6 25 -8 30 -114 418 -328 810 -620 1137
-84 94 -218 224 -296 288 -24 19 -52 43 -62 53 -10 9 -22 17 -27 17 -5 0 -11
3 -13 8 -7 17 -209 155 -288 198 -19 11 -37 22 -40 26 -6 8 -239 126 -300 152
-25 10 -63 27 -85 37 -33 14 -69 27 -95 34 -3 1 -18 7 -35 14 -134 56 -483
138 -665 156 -25 3 -58 7 -75 10 -33 6 -521 16 -526 11z m481 -400 c86 -9 222
-31 280 -45 19 -4 37 -8 40 -9 91 -14 354 -96 455 -141 103 -46 283 -137 340
-171 99 -60 280 -190 344 -248 l55 -48 -45 -42 c-81 -74 -113 -102 -169 -145
-30 -23 -63 -49 -73 -58 -10 -9 -43 -34 -75 -55 -31 -21 -58 -42 -60 -46 -2
-5 -8 -8 -14 -8 -5 0 -22 -8 -36 -18 -23 -16 -56 -35 -157 -89 -130 -71 -460
-187 -586 -207 -20 -3 -42 -8 -50 -10 -8 -3 -31 -8 -51 -11 -69 -10 -113 -16
-138 -21 -153 -26 -591 -21 -730 10 -8 1 -33 6 -55 10 -35 6 -85 17 -150 31
-11 2 -54 14 -95 25 -41 12 -79 22 -85 23 -5 1 -23 8 -40 14 -16 6 -57 21 -90
33 -33 12 -73 28 -90 34 -57 21 -286 137 -353 179 -137 85 -304 209 -410 306
l-34 30 29 27 c15 14 44 38 63 53 19 14 37 29 40 32 4 5 131 98 186 137 53 37
258 150 346 191 159 74 352 139 530 180 86 20 102 23 188 36 25 4 56 8 70 10
14 3 57 7 95 10 39 4 71 8 73 9 5 5 396 -2 452 -8z m-2255 -1029 c17 -14 41
-35 55 -47 76 -67 312 -233 411 -290 82 -46 329 -169 329 -163 0 3 6 1 13 -5
13 -10 265 -102 332 -120 22 -6 51 -15 65 -19 14 -4 28 -8 33 -9 4 -1 8 -2 10
-4 1 -1 11 -3 22 -4 11 -2 49 -10 85 -19 36 -8 90 -19 120 -23 69 -10 74 -11
80 -14 6 -2 27 -4 140 -16 157 -16 568 -9 666 10 12 2 45 7 75 11 65 8 170 28
207 39 9 3 33 8 52 11 38 7 76 18 220 65 52 17 100 32 105 34 105 33 505 225
513 247 2 5 8 9 13 9 8 0 97 55 134 82 6 4 48 35 95 69 47 34 90 67 96 75 6 8
14 14 17 14 5 0 37 26 115 97 l47 42 22 -27 c30 -36 166 -238 189 -282 11 -19
21 -37 24 -40 9 -9 80 -157 80 -168 0 -5 7 -15 15 -22 8 -6 14 -15 13 -18 -1
-7 1 -14 35 -102 12 -30 22 -57 23 -60 0 -3 4 -12 7 -20 7 -18 56 -189 61
-216 2 -10 11 -53 20 -94 8 -41 17 -97 20 -125 3 -27 9 -75 12 -105 3 -30 7
-87 8 -127 1 -40 5 -75 9 -79 4 -4 7 -67 7 -140 l0 -132 -30 -4 c-16 -3 -35
-1 -42 3 -6 4 -19 4 -29 -1 -9 -5 -19 -7 -22 -3 -7 7 -90 8 -103 1 -5 -2 -20
-3 -34 -1 -30 4 -38 4 -65 3 -11 0 -27 0 -35 1 -8 1 -28 1 -45 0 -16 -1 -37
-1 -45 -1 -8 1 -24 1 -35 0 -11 -1 -33 -1 -50 -1 -16 1 -38 1 -47 1 -10 0 -24
0 -30 1 -7 0 -22 0 -33 -1 -11 0 -27 0 -35 1 -8 1 -28 1 -45 0 -16 -1 -37 -1
-45 -1 -8 1 -24 1 -35 0 -11 -1 -45 -1 -75 0 -30 1 -59 1 -65 0 -24 -4 -86 -2
-92 3 -3 4 -13 2 -23 -3 -10 -5 -20 -7 -23 -3 -6 5 -83 7 -104 3 -20 -4 -85
-2 -90 3 -3 4 -13 2 -23 -3 -10 -5 -20 -7 -23 -3 -6 5 -83 7 -104 3 -20 -4
-85 -2 -90 3 -3 4 -13 2 -23 -3 -10 -5 -20 -7 -23 -3 -6 5 -83 7 -104 3 -20
-4 -85 -2 -90 3 -3 4 -13 2 -23 -3 -10 -5 -20 -7 -23 -3 -6 5 -83 7 -104 3
-20 -4 -85 -2 -90 3 -3 4 -13 2 -23 -3 -10 -5 -20 -7 -23 -3 -7 7 -90 8 -103
1 -5 -2 -20 -3 -34 -1 -30 4 -38 4 -65 3 -11 0 -27 0 -35 1 -8 1 -28 1 -45 0
-16 -1 -37 -1 -45 -1 -8 1 -24 1 -35 0 -11 -1 -33 -1 -50 -1 -16 1 -38 1 -47
1 -10 0 -24 0 -30 1 -7 0 -22 0 -33 -1 -11 0 -27 0 -35 1 -8 1 -28 1 -45 0
-16 -1 -37 -1 -45 -1 -8 1 -24 1 -35 0 -11 -1 -45 -1 -75 0 -30 1 -59 1 -65 0
-24 -4 -86 -2 -92 3 -3 4 -13 2 -23 -3 -10 -5 -20 -7 -23 -3 -6 5 -83 7 -104
3 -20 -4 -85 -2 -90 3 -3 4 -13 2 -23 -3 -10 -5 -20 -7 -23 -3 -6 5 -83 7
-104 3 -20 -4 -85 -2 -90 3 -3 4 -13 2 -23 -3 -10 -5 -20 -7 -23 -3 -6 5 -83
7 -104 3 -20 -4 -85 -2 -90 3 -3 4 -13 2 -23 -3 -10 -5 -20 -7 -23 -3 -6 5
-83 7 -104 3 -20 -4 -85 -2 -90 3 -3 4 -13 2 -23 -3 -10 -5 -20 -7 -23 -3 -6
5 -83 7 -104 3 -20 -4 -85 -2 -90 3 -3 4 -13 2 -23 -3 -10 -5 -20 -7 -23 -3
-6 5 -83 7 -104 3 -20 -4 -85 -2 -90 3 -3 4 -13 2 -23 -3 -10 -5 -20 -7 -23
-3 -6 5 -83 7 -104 3 -20 -4 -85 -2 -90 3 -3 4 -14 2 -24 -3 -10 -6 -20 -6
-23 -2 -3 5 -26 6 -50 2 -25 -4 -51 -3 -58 1 -6 4 -19 4 -29 -1 -9 -5 -19 -7
-22 -3 -6 5 -83 7 -104 3 -5 -1 -26 -1 -48 -1 -22 1 -46 1 -52 1 -33 0 -45 0
-75 2 -18 2 -43 0 -55 -4 -14 -4 -26 -2 -33 7 -13 15 -16 87 -5 105 3 5 2 10
-4 10 -6 0 -6 11 -1 30 5 17 6 30 2 30 -4 0 -6 20 -4 45 2 25 7 45 11 45 3 0
6 28 7 63 1 65 11 200 19 252 3 17 7 44 9 60 3 17 7 41 10 55 3 14 13 59 21
100 17 76 89 302 121 375 10 22 18 42 19 45 1 3 21 43 44 90 24 47 50 100 59
118 9 17 20 32 24 32 4 0 8 4 8 10 0 13 81 139 143 223 l51 67 25 -23 c14 -13
40 -36 56 -50z m-814 -2087 c7 5 20 5 28 1 9 -4 27 -5 41 -1 14 3 40 3 58 -1
17 -4 34 -3 37 1 2 4 23 4 45 0 22 -4 40 -4 40 1 0 4 13 4 29 -1 16 -4 32 -6
35 -3 9 9 58 9 83 1 12 -4 25 -3 28 2 3 6 15 6 30 0 15 -6 27 -6 30 0 3 6 15
6 30 0 15 -6 27 -6 30 0 3 6 15 6 30 0 15 -6 27 -6 30 0 3 6 15 6 30 0 15 -6
27 -6 30 0 3 6 15 6 30 0 15 -6 27 -6 30 0 3 6 15 6 30 0 15 -6 27 -6 30 0 3
6 15 6 30 0 15 -6 27 -6 30 0 3 6 15 6 30 0 15 -6 27 -6 30 1 4 5 11 6 17 3
12 -8 117 -9 124 -1 3 2 21 1 40 -3 19 -4 36 -4 39 0 2 4 23 4 45 0 22 -4 40
-4 40 1 0 4 13 4 29 -1 16 -4 32 -6 35 -3 9 9 58 9 83 1 12 -4 25 -3 28 2 4 7
13 7 24 0 10 -5 21 -7 24 -3 9 8 293 7 306 -2 6 -3 11 -3 11 2 0 9 67 9 76 0
3 -3 17 -2 30 3 13 5 26 6 28 1 3 -4 25 -5 49 -1 25 3 54 3 65 -1 12 -5 24 -4
27 1 4 7 13 7 24 0 10 -5 21 -7 24 -3 9 8 293 7 306 -2 6 -3 11 -3 11 2 0 9
67 9 76 0 3 -3 17 -2 30 3 13 5 25 6 28 2 3 -5 30 -5 61 -2 31 3 58 3 61 -2 3
-4 16 -3 29 2 15 6 27 6 30 0 3 -6 15 -6 30 0 15 6 27 6 30 0 3 -6 15 -6 30 0
15 6 27 6 30 -1 4 -5 11 -6 17 -3 5 3 85 6 176 5 92 -1 189 -2 215 -2 27 0 51
2 53 4 3 3 21 1 40 -3 19 -4 36 -4 39 0 2 4 23 4 45 0 22 -4 40 -4 40 1 0 4
13 4 29 -1 16 -4 32 -6 35 -3 9 9 58 9 83 1 12 -4 25 -3 28 2 3 6 15 6 30 0
15 -6 27 -6 30 0 3 6 15 6 30 0 15 -6 27 -6 30 0 3 6 15 6 30 0 15 -6 27 -6
30 0 3 6 15 6 30 0 15 -6 27 -6 30 0 3 6 15 6 30 0 15 -6 27 -6 30 0 3 6 15 6
30 0 15 -6 27 -6 30 0 3 6 15 6 30 0 15 -6 27 -6 30 0 3 6 15 6 30 0 15 -6 27
-6 30 1 4 5 11 6 17 3 12 -8 117 -9 124 -1 3 2 21 1 40 -3 19 -4 36 -4 39 0 2
4 23 4 45 0 22 -4 40 -4 40 1 0 4 13 4 29 -1 16 -4 32 -6 35 -3 7 8 84 8 92 0
3 -3 17 -2 30 3 14 6 26 6 29 0 3 -6 15 -6 30 0 15 6 27 6 30 0 3 -6 15 -6 30
0 15 6 27 6 30 -1 4 -5 11 -7 16 -3 9 5 201 7 352 3 27 0 51 2 54 5 3 2 16 1
29 -4 14 -6 26 -6 29 0 4 7 13 7 24 0 10 -5 21 -7 24 -3 9 8 293 7 306 -2 6
-3 11 -3 11 2 0 9 67 9 76 0 3 -3 16 -2 29 3 13 5 26 6 29 2 4 -3 24 -5 46 -3
90 6 238 -105 292 -220 97 -205 9 -456 -194 -552 l-54 -26 -375 -1 c-206 -1
-381 -1 -389 -1 -8 0 -80 0 -160 0 -80 0 -152 0 -160 0 -120 4 -316 -1 -318
-9 -2 -6 -26 -10 -53 -10 l-49 0 -1 -152 c-1 -84 -1 -156 0 -160 1 -12 2 -61
2 -113 0 -27 0 -59 0 -70 0 -11 0 -92 0 -180 0 -88 0 -164 0 -170 0 -5 0 -30
0 -55 0 -25 0 -52 0 -60 4 -112 -36 -212 -111 -284 -47 -45 -145 -103 -185
-109 -11 -1 -24 -5 -30 -8 -21 -12 -172 -1 -220 16 -106 36 -198 116 -247 213
l-23 47 -3 553 -2 552 -63 1 c-34 1 -65 1 -68 1 -4 -1 -60 -1 -125 -1 -66 -1
-184 -1 -264 -2 -80 0 -152 -1 -160 0 -8 0 -368 0 -800 0 -432 0 -792 0 -800
0 -8 0 -80 0 -160 0 -80 -1 -154 -1 -165 0 -11 1 -261 2 -555 4 -294 2 -547 6
-561 10 -134 35 -258 162 -286 291 -4 17 -7 67 -7 111 0 75 12 121 45 175 5 8
13 24 18 35 11 25 77 86 128 118 57 36 121 52 195 52 38 0 68 3 68 7 0 4 13 3
29 -2 15 -4 34 -4 42 0z m344 -1200 c3 5 21 4 40 0 19 -4 37 -4 40 0 3 4 21 4
40 0 19 -4 37 -4 40 0 3 4 21 4 40 0 19 -4 37 -4 40 1 3 4 11 6 18 4 23 -9 82
-11 115 -4 17 4 48 3 67 -1 19 -4 37 -4 40 1 3 4 11 6 18 4 23 -9 82 -11 115
-4 17 4 34 3 37 -1 3 -4 21 -4 40 0 19 4 51 4 70 0 19 -4 37 -4 40 1 3 4 11 6
18 4 23 -9 82 -11 115 -4 17 4 48 3 67 -1 19 -4 37 -4 40 0 3 4 21 4 40 0 19
-4 37 -4 40 0 3 4 21 4 40 0 19 -4 37 -4 40 0 3 4 20 4 39 0 19 -4 37 -6 39
-3 3 2 36 4 73 3 38 -1 89 -1 114 0 25 1 54 2 65 1 83 -2 188 0 195 4 5 3 11
2 14 -3 3 -5 24 -6 48 -2 24 3 62 3 86 -1 23 -3 45 -3 47 1 3 5 21 4 40 0 19
-4 37 -4 40 0 3 4 21 4 40 0 19 -4 37 -4 40 0 3 4 21 4 40 0 19 -4 37 -4 40 1
3 4 11 6 18 4 23 -9 82 -11 115 -4 17 4 48 3 67 -1 19 -4 37 -4 40 1 3 4 11 6
18 4 23 -9 82 -11 115 -4 17 4 34 3 37 -1 3 -4 22 -4 42 0 20 5 41 7 45 4 4
-3 26 -6 48 -6 l39 0 4 -357 c2 -196 6 -368 10 -383 16 -61 61 -175 83 -210
13 -21 24 -40 24 -44 0 -3 6 -12 13 -19 6 -8 32 -38 57 -68 90 -108 245 -203
405 -248 115 -33 316 -33 430 0 178 50 340 155 433 280 15 20 29 38 32 41 3 3
11 16 18 29 8 13 22 38 32 56 28 50 71 193 76 255 6 74 6 159 -1 170 -3 5 -1
11 3 14 5 3 6 25 2 48 -3 24 -3 57 1 75 3 17 3 37 -2 44 -4 7 -4 22 1 34 5 12
5 27 0 34 -4 7 -4 28 0 46 4 18 4 39 -1 46 -4 7 -5 17 -2 21 7 13 7 113 -1
126 -5 8 10 11 48 11 30 -1 59 2 65 5 5 4 12 2 15 -3 3 -5 21 -5 41 -1 19 4
51 4 70 0 19 -4 37 -4 40 1 3 4 11 6 18 4 23 -9 82 -11 115 -4 17 4 48 3 67
-1 19 -4 37 -4 40 0 3 4 21 4 40 0 20 -4 38 -4 41 1 3 5 10 7 15 4 5 -4 27 -7
49 -7 l40 0 2 -802 c3 -731 1 -807 -14 -866 -18 -68 -104 -250 -118 -250 -5 0
-11 -8 -14 -17 -18 -53 -178 -190 -289 -248 -139 -72 -168 -77 -434 -75 -156
1 -233 -2 -233 -9 0 -10 -69 -15 -132 -10 -7 1 -38 0 -68 -1 -30 -1 -65 1 -77
4 -13 3 -23 0 -23 -5 0 -6 -4 -8 -9 -4 -13 7 -159 10 -167 3 -3 -4 -18 -2 -34
2 -16 4 -30 6 -32 4 -6 -5 -110 -6 -135 0 -13 3 -23 0 -23 -5 0 -6 -5 -7 -11
-4 -8 5 -83 7 -164 3 -5 0 -22 2 -37 5 -16 3 -28 1 -28 -4 0 -6 -5 -7 -10 -4
-6 4 -35 6 -65 5 -30 0 -63 -1 -72 -1 -10 0 -54 0 -98 0 -44 0 -84 0 -90 -1
-5 0 -22 2 -37 5 -16 3 -28 1 -28 -4 0 -6 -5 -7 -11 -4 -8 5 -83 7 -164 3 -5
0 -22 2 -37 5 -16 3 -28 1 -28 -4 0 -6 -4 -7 -10 -4 -12 7 -219 9 -226 2 -3
-3 -19 -1 -35 3 -17 5 -31 5 -35 -1 -3 -5 -10 -7 -15 -4 -11 7 -229 9 -236 2
-2 -3 -18 -1 -34 3 -16 5 -31 5 -34 0 -3 -5 -11 -7 -18 -4 -22 8 -237 9 -237
1 0 -5 -5 -5 -11 -2 -8 5 -83 7 -164 3 -5 0 -22 2 -37 5 -16 3 -28 1 -28 -4 0
-6 -5 -7 -11 -4 -8 5 -83 7 -164 3 -5 0 -22 2 -37 5 -16 3 -28 1 -28 -4 0 -6
-5 -7 -11 -4 -8 5 -83 7 -164 3 -5 0 -22 2 -37 5 -16 3 -28 2 -28 -2 0 -4 -17
-5 -37 -2 -21 4 -65 3 -98 0 -176 -21 -405 72 -560 226 -39 39 -77 79 -85 90
-41 55 -71 105 -91 150 -12 28 -25 57 -29 65 -15 33 -46 175 -40 190 5 15 4
80 -2 80 -4 0 -3 14 2 30 5 17 6 30 2 30 -8 0 -7 88 1 96 2 3 1 21 -3 40 -4
18 -5 34 -1 34 3 0 5 28 3 62 -1 35 -3 69 -2 76 0 18 0 41 -1 99 0 29 2 57 6
63 3 5 3 10 -2 10 -9 0 -9 87 0 96 2 3 1 21 -3 40 -4 18 -5 34 -1 34 7 0 5
119 -2 127 -3 2 -1 18 3 34 5 16 5 29 0 29 -5 0 -5 13 0 30 5 17 5 30 0 30 -5
0 -5 13 0 30 5 17 5 30 1 30 -4 0 -4 27 -1 60 3 33 3 60 -1 60 -4 0 -4 14 1
30 5 17 6 30 2 30 -4 0 -7 18 -7 40 0 22 2 40 5 40 3 0 4 17 2 38 -3 41 -3 48
-1 95 0 17 -1 39 -3 47 -2 10 5 15 24 15 15 1 30 3 33 6 3 3 26 3 50 -1 25 -4
48 -4 50 0z"/>
</g>
</svg>
