<svg width="61" height="40" viewBox="0 0 61 40" fill="none" xmlns="http://www.w3.org/2000/svg">
<path d="M44.7258 2.59234e-06C47.4202 2.80309e-06 49.9648 0.650413 52.3598 1.95122C54.7547 3.25204 56.7006 5.12196 58.1975 7.56098C59.6345 10 60.3529 12.8726 60.3529 16.1789C60.3529 19.4851 59.4548 22.71 57.6586 25.8537C57.0599 26.9919 55.9821 28.4553 54.4254 30.2439C52.8088 32.0325 51.312 33.5772 49.9349 34.878L44.2768 40L40.2353 33.9837C43.0494 32.4119 45.5341 30.4607 47.6896 28.1301C49.8451 25.8537 50.9228 23.7669 50.9228 21.8699C50.9228 20.8943 50.6833 20.1084 50.2043 19.5122C48.1087 20.8672 45.7736 21.5447 43.1991 21.5447C41.343 21.5447 39.5767 21.0298 37.9002 20C36.1639 19.0244 34.7868 17.7236 33.7689 16.0976C32.6912 14.5257 32.1523 12.8997 32.1523 11.2195C32.1523 9.32249 32.781 7.50678 34.0383 5.77236C35.2358 4.03794 36.8225 2.62873 38.7983 1.54472C40.7143 0.51491 42.6901 2.43311e-06 44.7258 2.59234e-06ZM12.4837 7.03486e-08C15.178 2.811e-07 17.7227 0.65041 20.1176 1.95122C22.5126 3.25203 24.4585 5.12195 25.9554 7.56098C27.3923 10 28.1108 12.8726 28.1108 16.1789C28.1108 18.5095 27.7815 20.5962 27.1229 22.439C26.4643 24.336 25.3267 26.3144 23.7101 28.374C22.1534 30.3252 20.6864 31.9512 19.3093 33.252C17.9322 34.607 15.5373 36.8564 12.1245 40L8.08298 33.9837C10.8971 32.4119 13.3818 30.4607 15.5373 28.1301C17.6928 25.8537 18.7705 23.7669 18.7705 21.8699C18.7705 20.8943 18.531 20.1084 18.052 19.5122C15.9564 20.8672 13.6213 21.5447 11.0467 21.5447C9.19065 21.5447 7.42437 21.0298 5.7479 20C4.01155 19.0244 2.63445 17.7236 1.61659 16.0976C0.538863 14.5257 -1.16679e-06 12.8997 -1.00262e-06 11.2195C-8.17266e-07 9.32249 0.598739 7.50677 1.79622 5.77236C2.9937 4.03794 4.58036 2.62873 6.5562 1.54472C8.47216 0.514908 10.448 -8.8886e-08 12.4837 7.03486e-08Z" fill="#E1E1E1"/>
</svg>
