<svg aria-hidden="true" style="position: absolute; width: 0; height: 0; overflow: hidden;" version="1.1" xmlns="http://www.w3.org/2000/svg" xmlns:xlink="http://www.w3.org/1999/xlink">
<defs>
<!-- Стрілка в кнопці (>)-->
<symbol id="icon-arrow_button" viewBox="0 0 19 32">
<path fill="none" opacity="0.4" stroke="#d41443" style="stroke: var(--color1, #d41443)" stroke-linejoin="round" stroke-linecap="round" stroke-miterlimit="4" stroke-width="6.4" d="M3.217 3.2l12.8 12.8-12.8 12.8"></path>
</symbol>
<!-- (") -->
<symbol id="icon-block5_" viewBox="0 0 43 32">
<path fill="#e1e1e1" style="fill: var(--color2, #e1e1e1)" d="M32.019-0.002c1.928 0 3.75 0.52 5.465 1.561s3.108 2.537 4.179 4.489c1.029 1.951 1.543 4.25 1.543 6.895s-0.643 5.225-1.928 7.741c-0.429 0.911-1.2 2.081-2.316 3.512-1.157 1.431-2.228 2.667-3.214 3.708l-4.051 4.098-2.893-4.813c2.063-1.302 3.824-2.855 5.307-4.647l0.030-0.037c1.543-1.821 2.314-3.491 2.314-5.009 0-0.781-0.171-1.41-0.514-1.887-1.5 1.084-3.172 1.627-5.015 1.627-1.328 0-2.593-0.412-3.793-1.236-1.238-0.782-2.238-1.834-2.936-3.079l-0.022-0.043c-0.771-1.258-1.157-2.559-1.157-3.903 0-1.519 0.45-2.971 1.35-4.359 0.866-1.389 2.011-2.526 3.364-3.357l0.044-0.025c1.371-0.824 2.784-1.236 4.242-1.236zM8.937-0.002c1.928 0 3.75 0.52 5.465 1.561s3.108 2.536 4.179 4.489c1.029 1.951 1.543 4.25 1.543 6.895 0 1.864-0.236 3.534-0.707 5.009-0.472 1.518-1.286 3.1-2.444 4.749-1.115 1.561-2.164 2.862-3.15 3.903-0.986 1.084-2.7 2.884-5.144 5.399l-2.893-4.813c2.063-1.302 3.824-2.855 5.307-4.647l0.030-0.037c1.543-1.821 2.315-3.491 2.315-5.009 0-0.781-0.172-1.41-0.514-1.887-1.5 1.084-3.172 1.627-5.015 1.627-1.328 0-2.593-0.412-3.793-1.236-1.238-0.782-2.237-1.834-2.936-3.079l-0.022-0.043c-0.771-1.258-1.157-2.559-1.157-3.903 0-1.519 0.429-2.971 1.286-4.359 0.866-1.389 2.011-2.526 3.364-3.357l0.045-0.025c1.371-0.824 2.784-1.236 4.243-1.236z"></path>
</symbol>
<!-- Крапки блок 5, червоні -->
<symbol id="icon-block5_dots" viewBox="0 0 256 32">
<path fill="#c7133e" style="fill: var(--color3, #c7133e)" d="M144.016 16.028c0 8.838-7.164 16.002-16.002 16.002s-16.002-7.164-16.002-16.002c0-8.838 7.164-16.002 16.002-16.002s16.002 7.164 16.002 16.002z"></path>
<path fill="#c7133e" style="fill: var(--color3, #c7133e)" d="M32.003 16.028c0 8.838-7.164 16.002-16.002 16.002s-16.002-7.164-16.002-16.002c0-8.838 7.164-16.002 16.002-16.002s16.002 7.164 16.002 16.002z"></path>
<path fill="#c7133e" style="fill: var(--color3, #c7133e)" d="M256.028 16.028c0 8.838-7.164 16.002-16.002 16.002s-16.002-7.164-16.002-16.002c0-8.838 7.164-16.002 16.002-16.002s16.002 7.164 16.002 16.002z"></path>
</symbol>
<!--Хатинка блок 5-->
<symbol id="icon-block5_home" viewBox="0 0 32 32">
<path fill="#d31342" style="fill: var(--color4, #d31342)" d="M31.609 16.77c0.246-0.246 0.399-0.586 0.399-0.962 0-0.435-0.204-0.822-0.521-1.071l-0.003-0.002-14.305-11.678c-0.314-0.243-0.713-0.39-1.146-0.39-0.448 0-0.86 0.157-1.183 0.419l0.004-0.003-14.354 12.27c-0.306 0.249-0.5 0.627-0.5 1.049 0 0.39 0.166 0.742 0.43 0.988l0.001 0.001 0.36 0.347c0.595 0.581 1.56 0.651 2.153 0.155l1.072-0.896v13.121c0 0.803 0.702 1.456 1.563 1.456h5.594c0.864 0 1.563-0.654 1.563-1.456v-9.179h7.135v9.176c-0 0.011-0 0.023-0 0.035 0 0.785 0.637 1.422 1.422 1.422 0.016 0 0.032-0 0.048-0.001l-0.002 0h5.93c0.862 0 1.56-0.651 1.56-1.456v-12.932s0.299 0.24 0.664 0.541c0.363 0.299 1.131 0.059 1.71-0.536l0.408-0.419z"></path>
</symbol>
<!-- Бургер -->
<symbol id="icon-Burger" viewBox="0 0 46 32">
<path fill="none" stroke="#d41443" style="stroke: var(--color1, #d41443)" stroke-linejoin="miter" stroke-linecap="butt" stroke-miterlimit="4" stroke-width="2.2857" d="M0 2.294h45.714M0 16.008h45.714M0 29.722h45.714"></path>
</symbol>
<!-- Хрестик close -->
<symbol id="icon-close" viewBox="0 0 32 32">
<path fill="none" stroke="#fff" style="stroke: var(--color5, #fff)" stroke-linejoin="miter" stroke-linecap="butt" stroke-miterlimit="4" stroke-width="2" d="M2.522 2.001l26.978 28.018M2.001 29.499l28.018-26.978"></path>
</symbol>
<!-- Крапки блок 2 (білі) -->
<symbol id="icon-dots_product" viewBox="0 0 139 32">
<path fill="#fff" style="fill: var(--color5, #fff)" d="M85.368 16.028c0 8.84-7.166 16.006-16.006 16.006s-16.006-7.166-16.006-16.006c0-8.84 7.166-16.006 16.006-16.006s16.006 7.166 16.006 16.006z"></path>
<path fill="#fff" style="fill: var(--color5, #fff)" d="M32.013 16.028c0 8.84-7.166 16.006-16.006 16.006s-16.006-7.166-16.006-16.006c0-8.84 7.166-16.006 16.006-16.006s16.006 7.166 16.006 16.006z"></path>
<path fill="#fff" style="fill: var(--color5, #fff)" d="M138.722 16.028c0 8.84-7.166 16.006-16.006 16.006s-16.006-7.166-16.006-16.006c0-8.84 7.166-16.006 16.006-16.006s16.006 7.166 16.006 16.006z"></path>
</symbol>
<!-- Фейсбук -->
<symbol id="icon-fb" viewBox="0 0 16 32">
<path fill="#fff" style="fill: var(--color5, #fff)" d="M14.151 15.973h-4.034v14.868h-6.113v-14.868h-2.907v-5.223h2.907v-3.382c0-2.418 1.142-6.205 6.168-6.205l4.527 0.019v5.073h-3.285c-0.538 0-1.298 0.272-1.298 1.426v3.074h4.568l-0.534 5.22z"></path>
</symbol>
<!-- GIT -->
<symbol id="icon-Git" viewBox="0 0 32 32">
<path fill="#fff" style="fill: var(--color5, #fff)" d="M16 0c-8.789 0-16 7.211-16 16 0 7.499 5.262 14.312 12.25 16v-5.293c-0.276 0.070-0.593 0.109-0.919 0.109-0.398 0-0.781-0.059-1.143-0.169l0.028 0.007c-0.946-0.278-1.714-0.909-2.285-1.869-0.363-0.613-1.008-1.28-1.68-1.23l-0.165-1.867c1.454-0.125 2.71 0.886 3.456 2.139 0.333 0.558 0.715 0.885 1.205 1.029 0.472 0.141 0.981 0.074 1.573-0.136 0.149-1.186 0.693-1.629 1.104-2.256-4.168-0.621-5.829-2.832-6.488-4.576-0.874-2.318-0.405-5.213 1.139-7.043 0.030-0.035 0.085-0.128 0.064-0.192-0.709-2.141 0.154-3.91 0.186-4.098 0.818 0.24 0.95-0.243 3.552 1.336l0.448 0.27c0.189 0.112 0.128 0.048 0.317 0.032 1.003-0.282 2.157-0.452 3.349-0.469l0.010-0c1.136 0.014 2.272 0.176 3.403 0.483l0.146 0.016c-0.013-0.003 0.040-0.010 0.128-0.062 3.248-1.968 3.131-1.325 4.003-1.608 0.032 0.189 0.882 1.987 0.182 4.099-0.096 0.291 2.816 2.957 1.202 7.235-0.659 1.744-2.32 3.957-6.486 4.578 0.534 0.816 1.176 1.248 1.173 2.928v6.606c6.986-1.688 12.25-8.501 12.25-16 0-8.789-7.211-16-16-16z"></path>
</symbol>
<!-- Телеграм -->
<symbol id="icon-telegram" viewBox="0 0 44 32">
<path fill="#fff" style="fill: var(--color5, #fff)" d="M17.345 21.059l-0.674 8.861c0.966 0 1.384-0.388 1.886-0.852l4.527-4.041 9.381 6.415c1.72 0.894 2.934 0.422 3.401-1.478l6.157-26.936c0.548-2.374-0.92-3.303-2.594-2.72l-36.2 12.936c-2.47 0.896-2.434 2.18-0.42 2.766l9.253 2.684 21.497-12.554c1.012-0.626 1.932-0.28 1.176 0.346l-17.393 14.572z"></path>
</symbol>
<!-- Бургер альтернатива (товстіший) -->
<symbol id="icon-menu_24px" viewBox="0 0 48 32">
<path d="M0 5.333v-5.333h48v5.333h-48zM0 18.667h48v-5.333h-48v5.333zM0 32h48v-5.333h-48v5.333z"></path>
</symbol>
<!-- Стрілка Hero & block 2 -->
<symbol id="icon-rightarrow1_80967" viewBox="0 0 32 32">
<path d="M16.222 3.867c-1.008 1.008-1.008 2.637 0 3.645l5.911 5.911h-19.555c-1.423 0-2.578 1.155-2.578 2.578s1.155 2.578 2.578 2.578h19.555l-5.911 5.911c-1.008 1.008-1.008 2.637 0 3.645 0.503 0.503 1.163 0.755 1.822 0.755s1.32-0.253 1.822-0.755l12.133-12.133-12.133-12.133c-1.008-1.008-2.637-1.008-3.645 0z"></path>
</symbol>
</defs>
</svg>
